<?xml version="1.0" encoding="UTF-8" standalone="no"?>
<!DOCTYPE svg PUBLIC "-//W3C//DTD SVG 1.1//EN" "http://www.w3.org/Graphics/SVG/1.1/DTD/svg11.dtd">
<svg width="100%" height="100%" viewBox="0 0 144 144" version="1.1" xmlns="http://www.w3.org/2000/svg" xmlns:xlink="http://www.w3.org/1999/xlink" xml:space="preserve" xmlns:serif="http://www.serif.com/" style="fill-rule:evenodd;clip-rule:evenodd;stroke-linejoin:round;stroke-miterlimit:2;">
    <g transform="matrix(0.39254,0,0,0.390037,0,-0.313203)">
        <path d="M182.244,24.882L191.608,75.713L256.484,121.862L289.257,99.791L182.244,24.882ZM182.628,217.781L212.411,198.596L179.214,209.481L103.321,175.369L96.633,137.245L152.863,154.488L93.957,121.862L85.263,71.7L134.757,95.778L81.918,52.304L72.555,0.803L281.783,147.272L261.713,127.643C265.402,126.402 269.749,124.268 276.457,120.209C284.559,115.303 293.974,108.206 308.112,108.405C327.161,108.67 334.702,118.456 344.185,127.36C352.983,135.623 366.476,143.273 366.842,143.933C355.673,146.064 342.451,146.148 331.186,150.794C280.585,171.642 242.732,197.338 211.004,225.532C191.516,242.851 178.153,256.52 163.516,271.012C154.409,280.032 140.437,293 134.088,302.448L182.628,217.781Z" style="fill:rgb(56,117,187);fill-rule:nonzero;"/>
    </g>
    <g transform="matrix(0.39254,0,0,0.390037,0,-0.313203)">
        <path d="M289.472,199.189C290.063,204.346 290.371,209.567 290.371,214.836C290.371,250.95 276.307,284.905 250.77,310.442C225.233,335.979 191.279,350.043 155.164,350.043C119.049,350.043 85.095,335.979 59.557,310.442C34.02,284.905 19.956,250.95 19.956,214.836C19.956,178.72 34.02,144.767 59.557,119.23C63.561,115.227 67.771,111.506 72.163,108.077L67.698,86.665C26.827,114.61 0,161.587 0,214.836C0,300.531 69.469,369.999 155.164,369.999C240.859,369.999 310.328,300.531 310.328,214.836C310.328,205.58 309.514,196.516 307.96,187.706C301.533,191.384 295.382,195.229 289.472,199.189Z" style="fill:rgb(27,31,79);fill-rule:nonzero;"/>
    </g>
</svg>
